<svg xmlns="http://www.w3.org/2000/svg" width="340" height="200" viewBox="0 0 340 200" font-family="'Segoe UI', Ubuntu, Sans-Serif">
  <rect x="0.5" y="0.5" width="339" height="199" rx="6" fill="#0a0f0b" stroke="#000000" stroke-opacity="0.00"/>
  <text x="20" y="30" font-size="15" font-weight="600" fill="#abd200">Most Commit Language (last year)</text>
  <rect x="20" y="47" width="10" height="10" fill="#f1e05a" stroke="#0a0f0b" stroke-width="1"/>
  <text x="36" y="55" font-size="11" fill="#68b587">JavaScript 39.23%</text>
  <rect x="20" y="67" width="10" height="10" fill="#00ADD8" stroke="#0a0f0b" stroke-width="1"/>
  <text x="36" y="75" font-size="11" fill="#68b587">Go 29.70%</text>
  <rect x="20" y="87" width="10" height="10" fill="#e34c26" stroke="#0a0f0b" stroke-width="1"/>
  <text x="36" y="95" font-size="11" fill="#68b587">HTML 5.26%</text>
  <rect x="20" y="107" width="10" height="10" fill="#3572A5" stroke="#0a0f0b" stroke-width="1"/>
  <text x="36" y="115" font-size="11" fill="#68b587">Python 4.93%</text>
  <rect x="20" y="127" width="10" height="10" fill="#ff3e00" stroke="#0a0f0b" stroke-width="1"/>
  <text x="36" y="135" font-size="11" fill="#68b587">Svelte 4.11%</text>
  <rect x="20" y="147" width="10" height="10" fill="#dea584" stroke="#0a0f0b" stroke-width="1"/>
  <text x="36" y="155" font-size="11" fill="#68b587">Rust 3.18%</text>
  <rect x="20" y="167" width="10" height="10" fill="#abd200" stroke="#0a0f0b" stroke-width="1"/>
  <text x="36" y="175" font-size="11" fill="#68b587">Other 13.59%</text>
  <path d="M250.00,55.00 A55.00,55.00 0 0 1 284.44,152.88 L268.78,133.39 A30.00,30.00 0 0 0 250.00,80.00 Z" fill="#f1e05a" stroke="#0a0f0b" stroke-width="1.5"/>
  <path d="M284.44,152.88 A55.00,55.00 0 0 1 198.95,130.46 L222.15,121.16 A30.00,30.00 0 0 0 268.78,133.39 Z" fill="#00ADD8" stroke="#0a0f0b" stroke-width="1.5"/>
  <path d="M198.95,130.46 A55.00,55.00 0 0 1 195.07,112.79 L220.04,111.52 A30.00,30.00 0 0 0 222.15,121.16 Z" fill="#e34c26" stroke="#0a0f0b" stroke-width="1.5"/>
  <path d="M195.07,112.79 A55.00,55.00 0 0 1 196.84,95.90 L221.00,102.31 A30.00,30.00 0 0 0 220.04,111.52 Z" fill="#3572A5" stroke="#0a0f0b" stroke-width="1.5"/>
  <path d="M196.84,95.90 A55.00,55.00 0 0 1 202.20,82.79 L223.93,95.16 A30.00,30.00 0 0 0 221.00,102.31 Z" fill="#ff3e00" stroke="#0a0f0b" stroke-width="1.5"/>
  <path d="M202.20,82.79 A55.00,55.00 0 0 1 208.55,73.85 L227.39,90.28 A30.00,30.00 0 0 0 223.93,95.16 Z" fill="#dea584" stroke="#0a0f0b" stroke-width="1.5"/>
  <path d="M208.55,73.85 A55.00,55.00 0 0 1 250.00,55.00 L250.00,80.00 A30.00,30.00 0 0 0 227.39,90.28 Z" fill="#abd200" stroke="#0a0f0b" stroke-width="1.5"/>
</svg>