<svg xmlns="http://www.w3.org/2000/svg" width="340" height="200" viewBox="0 0 340 200" font-family="'Segoe UI', Ubuntu, Sans-Serif">
  <rect x="0.5" y="0.5" width="339" height="199" rx="6" fill="#3f3f3f" stroke="#3f3f3f" stroke-opacity="1.00"/>
  <text x="20" y="30" font-size="15" font-weight="600" fill="#f0dfaf">Commits by Hour (last year, UTC+7)</text>
  <line x1="35" y1="45" x2="35" y2="155" stroke="#8cd0d3"/>
  <line x1="31" y1="155" x2="35" y2="155" stroke="#8cd0d3"/>
  <text x="29" y="158" font-size="10" fill="#8cd0d3" text-anchor="end">0</text>
  <line x1="31" y1="128" x2="35" y2="128" stroke="#8cd0d3"/>
  <text x="29" y="131" font-size="10" fill="#8cd0d3" text-anchor="end">100</text>
  <line x1="31" y1="100" x2="35" y2="100" stroke="#8cd0d3"/>
  <text x="29" y="103" font-size="10" fill="#8cd0d3" text-anchor="end">200</text>
  <line x1="31" y1="73" x2="35" y2="73" stroke="#8cd0d3"/>
  <text x="29" y="76" font-size="10" fill="#8cd0d3" text-anchor="end">300</text>
  <line x1="31" y1="45" x2="35" y2="45" stroke="#8cd0d3"/>
  <text x="29" y="48" font-size="10" fill="#8cd0d3" text-anchor="end">400</text>
  <line x1="35" y1="155" x2="325" y2="155" stroke="#8cd0d3"/>
  <line x1="40" y1="155" x2="40" y2="159" stroke="#8cd0d3"/>
  <text x="40" y="171" font-size="10" fill="#8cd0d3" text-anchor="middle">0</text>
  <line x1="113" y1="155" x2="113" y2="159" stroke="#8cd0d3"/>
  <text x="113" y="171" font-size="10" fill="#8cd0d3" text-anchor="middle">6</text>
  <line x1="186" y1="155" x2="186" y2="159" stroke="#8cd0d3"/>
  <text x="186" y="171" font-size="10" fill="#8cd0d3" text-anchor="middle">12</text>
  <line x1="258" y1="155" x2="258" y2="159" stroke="#8cd0d3"/>
  <text x="258" y="171" font-size="10" fill="#8cd0d3" text-anchor="middle">18</text>
  <line x1="319" y1="155" x2="319" y2="159" stroke="#8cd0d3"/>
  <text x="319" y="171" font-size="10" fill="#8cd0d3" text-anchor="middle">23</text>
  <rect x="35.00" y="102.47" width="11.12" height="52.52" rx="2" fill="#7f9f7f"><title>00:00 — 191 commits</title></rect>
  <rect x="47.12" y="137.40" width="11.12" height="17.60" rx="2" fill="#7f9f7f"><title>01:00 — 64 commits</title></rect>
  <rect x="59.25" y="143.18" width="11.12" height="11.82" rx="2" fill="#7f9f7f"><title>02:00 — 43 commits</title></rect>
  <rect x="71.38" y="149.22" width="11.12" height="5.78" rx="2" fill="#7f9f7f"><title>03:00 — 21 commits</title></rect>
  <rect x="83.50" y="155.00" width="11.12" height="0.00" rx="2" fill="#7f9f7f"><title>04:00 — 0 commits</title></rect>
  <rect x="95.62" y="155.00" width="11.12" height="0.00" rx="2" fill="#7f9f7f"><title>05:00 — 0 commits</title></rect>
  <rect x="107.75" y="154.45" width="11.12" height="0.55" rx="2" fill="#7f9f7f"><title>06:00 — 2 commits</title></rect>
  <rect x="119.88" y="153.07" width="11.12" height="1.93" rx="2" fill="#7f9f7f"><title>07:00 — 7 commits</title></rect>
  <rect x="132.00" y="132.18" width="11.12" height="22.82" rx="2" fill="#7f9f7f"><title>08:00 — 83 commits</title></rect>
  <rect x="144.12" y="60.40" width="11.12" height="94.60" rx="2" fill="#7f9f7f"><title>09:00 — 344 commits</title></rect>
  <rect x="156.25" y="47.75" width="11.12" height="107.25" rx="2" fill="#7f9f7f"><title>10:00 — 390 commits</title></rect>
  <rect x="168.38" y="68.65" width="11.12" height="86.35" rx="2" fill="#7f9f7f"><title>11:00 — 314 commits</title></rect>
  <rect x="180.50" y="101.65" width="11.12" height="53.35" rx="2" fill="#7f9f7f"><title>12:00 — 194 commits</title></rect>
  <rect x="192.62" y="74.97" width="11.12" height="80.03" rx="2" fill="#7f9f7f"><title>13:00 — 291 commits</title></rect>
  <rect x="204.75" y="79.65" width="11.12" height="75.35" rx="2" fill="#7f9f7f"><title>14:00 — 274 commits</title></rect>
  <rect x="216.88" y="79.10" width="11.12" height="75.90" rx="2" fill="#7f9f7f"><title>15:00 — 276 commits</title></rect>
  <rect x="229.00" y="60.40" width="11.12" height="94.60" rx="2" fill="#7f9f7f"><title>16:00 — 344 commits</title></rect>
  <rect x="241.12" y="62.60" width="11.12" height="92.40" rx="2" fill="#7f9f7f"><title>17:00 — 336 commits</title></rect>
  <rect x="253.25" y="103.85" width="11.12" height="51.15" rx="2" fill="#7f9f7f"><title>18:00 — 186 commits</title></rect>
  <rect x="265.38" y="117.88" width="11.12" height="37.12" rx="2" fill="#7f9f7f"><title>19:00 — 135 commits</title></rect>
  <rect x="277.50" y="65.62" width="11.12" height="89.38" rx="2" fill="#7f9f7f"><title>20:00 — 325 commits</title></rect>
  <rect x="289.62" y="51.05" width="11.12" height="103.95" rx="2" fill="#7f9f7f"><title>21:00 — 378 commits</title></rect>
  <rect x="301.75" y="57.92" width="11.12" height="97.08" rx="2" fill="#7f9f7f"><title>22:00 — 353 commits</title></rect>
  <rect x="313.88" y="71.67" width="11.12" height="83.33" rx="2" fill="#7f9f7f"><title>23:00 — 303 commits</title></rect>
  <text x="180" y="189" font-size="11" fill="#8cd0d3" text-anchor="middle">hour of day</text>
</svg>